<?xml version="1.0" encoding="UTF-8"?> <svg xmlns="http://www.w3.org/2000/svg" width="377.18" height="315.47" version="1.1" viewBox="0 0 377.18 315.47"><g transform="translate(-15.01 491.58)"><path d="m-0.71532 308.57c3.7327-29.876 18.654-54.645 45.337-75.261 7.1188-5.5 17.352-13.426 22.74-17.613 12.78-9.9319 17.219-17.202 16.306-26.704-0.78652-8.1855-5.5296-13.304-14.616-15.772-10.089-2.7406-30.927 0.51386-46.676 7.2898-2.7264 1.173-5.7986 2.1328-6.8271 2.1328-1.8964 0-8.4869-16.53-9.7885-24.551-0.66884-4.1216-0.62922-4.1517 11.117-8.465 39.866-14.639 77.02-12.151 94.291 6.3127 7.5472 8.0686 9.6649 12.288 11.524 22.963 1.1044 6.3418 1.1217 10.809 0.0643 16.547-3.2654 17.718-12.556 29.224-42.091 52.129-21.251 16.48-29.267 24.868-31.915 33.397l-0.93144 3h77.513v32h-126.97zm196.71-13.261v-20.667h-77.333v-23.447l86.018-109.22 28.648-0.75688v102.76h25.333v30.666h-25.333v41.333h-37.333zm-0.5074-51.804c0.0876-0.10787 0.58371-10.357 1.1025-22.775l0.94319-22.579-12.978 17.246c-7.1377 9.4851-14.984 19.747-17.436 22.803-2.4519 3.0567-4.4581 5.7567-4.4581 6-4e-5 0.41528 32.483-0.2724 32.826-0.69493zm103.82-4.5944c-16.007-5.5349-28.513-16.724-35.736-31.97-4.0088-8.4624-4.2466-9.8246-4.2466-24.326 0-14.798 0.16764-15.702 4.5729-24.666 5.4186-11.026 16.653-22.878 26.165-27.606 10.629-5.2818 18.08-6.7489 31.111-6.1258 10.417 0.49802 13.164 1.1885 21.89 5.5013 16.491 8.1503 27.445 21.826 32.202 40.205 2.5857 9.9887 2.5892 15.421 0.0165 25.44-5.5841 21.747-19.773 37.282-39.745 43.516-10.108 3.1553-27.156 3.1703-36.232 0.032zm38.5-14.745c10.015-4.9305 17.099-12.238 22.003-22.696 2.9347-6.2588 3.5135-9.3651 3.5135-18.855 0-10.13-0.47089-12.318-4.3462-20.19-10.315-20.953-33.579-31.031-54.987-23.819-15.442 5.2022-25.972 15.682-30.656 30.511-3.3682 10.662-3.3691 16.384-4e-3 27.052 8.7984 27.894 38.493 40.788 64.476 27.997zm-27.149-53.596v-17.406l12.667 0.81277 0.38725 11 0.38726 11h19.892v12h-33.333zm-179.68-71.833c-8.4808-5.3395-9.6439-9.0873-9.6494-31.093l-5e-3 -19.667h-12v-17.333h11.867l0.79974-15.186 7.9999-2.389c12.866-3.8421 12.667-3.9614 12.667 7.5748v9.9999h9.9999c11.273 0 11.108-0.21586 7.9483 10.425l-2.0516 6.9086h-15.897l0.0204 16.333c0.0112 8.9833 0.54451 17.161 1.1851 18.172 0.88093 1.3908 2.9367 1.6174 8.4383 0.93002l7.2737-0.90878 2.2079 5.7812c1.2143 3.1796 2.2078 6.4148 2.2078 7.1892 0 2.6687-7.3613 4.8964-18 5.4469-9.0596 0.46886-11.321 0.13985-15.012-2.1839zm-125.65-45.983v-47.443l20.333 0.029282c23.1 0.033267 27.924 1.3557 35.209 9.6535 7.2938 8.3072 7.1168 21.619-0.39527 29.725-2.3225 2.506-2.9602 3.9878-1.8722 4.3504 3.312 1.104 10.439 8.3328 12.05 12.222 0.97963 2.365 1.4298 7.5109 1.1043 12.623-0.45578 7.1578-1.2422 9.4921-4.6087 13.68-2.2325 2.7773-6.7055 6.5495-9.9399 8.3829-5.5359 3.1378-7.2295 3.3593-28.881 3.7768l-23 0.44347zm38.496 28.416c4.866-1.6963 6.8374-4.6782 6.8374-10.342 0-6.3448-5.1715-9.5177-15.513-9.5177h-8.4868v21.333h6.4677c3.5572 0 8.3698-0.6631 10.695-1.4736zm-1.7686-41.799c6.9613-6.9613 2.633-15.334-8.4786-16.402l-6.9152-0.66446v20.339h6.0606c4.6569 0 6.8185-0.75797 9.3333-3.2727zm40.606 25.883v-34.723l20.667 0.77883 0.71168 68.666h-21.378zm86.977 0.38942 0.35584-34.333 8.342-0.39718c7.9182-0.377 8.409-0.22095 9.661 3.0721l1.319 3.4693 4.6807-3.5702c5.2969-4.0401 14.066-5.5519 19.664-3.3898 4.4212 1.7079 4.5425 3.6186 0.78457 12.354l-2.8821 6.6996-5.7539-0.86285c-4.091-0.61348-7.1114-0.21864-10.451 1.3662l-4.6973 2.229v47.696h-21.378zm52 0 0.35584-34.333h20l0.71168 68.666h-21.423zm26.356 32.945c0-0.76324 5.3802-8.5125 11.956-17.221l11.956-15.833-11.245-15.113c-6.1848-8.3119-11.265-16.162-11.289-17.446-0.0382-2.0169 1.2998-2.3333 9.8678-2.3333h9.912l14.47 20.065 15.102-20.065h9.9682c7.3984 0 9.9682 0.45652 9.9682 1.7708 0 0.97394-5.1 8.577-11.333 16.896s-11.333 15.544-11.333 16.057c0 0.51265 5.0801 7.7595 11.289 16.104 6.209 8.3446 11.309 15.922 11.333 16.839 0.0318 1.1969-2.8684 1.6561-10.289 1.6293l-10.333-0.03731-14.382-19.736-14.468 19.811h-10.575c-6.4374 0-10.575-0.54296-10.575-1.3877zm-163.1-77.336c-6.1007-4.7988-5.9369-14.761 0.32173-19.566 1.1635-0.89334 4.6928-1.6433 7.8428-1.6667 4.3389-0.032125 6.5205 0.75091 8.9999 3.2303 10.536 10.536-5.4038 27.254-17.164 18.003zm141.1 1.1848c-4.4202-2.4176-6-5.3533-6-11.149 0-7.5719 4.0285-11.311 12.187-11.311 7.895 0 11.813 3.8587 11.813 11.634 0 4.4625-0.75077 6.0939-4.1023 8.914-4.3235 3.638-9.4522 4.3437-13.898 1.9122z" fill="#d0d4cb"></path><path d="m-1.3333 313.92c0-4.5807 4.4117-22.977 7.4391-31.02 7.5856-20.153 20.704-35.743 46.384-55.12 27.086-20.438 31.51-25.559 31.51-36.47 0-8.5223-2.8143-13.188-10.075-16.703-5.4569-2.6416-7.5962-2.8996-19.036-2.2954-10.405 0.54949-15.539 1.6363-26.644 5.6397-7.5654 2.7275-13.942 4.749-14.17 4.4922-1.2996-1.4637-8.9144-25.281-8.4898-26.555 0.64666-1.94 13.636-7.292 25.748-10.609 31.579-8.6485 61.968-5.1188 78.134 9.0755 2.5712 2.2576 6.4428 7.2959 8.6035 11.196 3.6494 6.588 3.9285 8.0863 3.9285 21.092 0 12.278-0.42464 14.905-3.4519 21.359-4.752 10.13-16.147 21.987-35.861 37.314-18.666 14.512-29.009 24.811-33.233 33.092l-2.841 5.5688h78.72v32h-63.333c-56.177 0-63.333-0.23234-63.333-2.0562zm198.67-18.572v-20.705h-77.429l0.38162-12.585 0.38161-12.585 85.144-108.16h27.522v102.57l24.666 0.76673v29.333l-24.598 0.76582-0.36779 20.284-0.36779 20.284-35.333 0.74406zm-0.30024-52.034c0.20154-0.16094 0.20154-10.308 0-22.548l-0.36642-22.255-35.387 46.715 17.693-0.80933c9.7313-0.44513 17.858-0.94101 18.06-1.102zm101.6-4.964c-41.171-14.396-53.229-66.226-22.559-96.969 25.083-25.143 66.743-22.328 88.239 5.9617 8.5198 11.213 10.994 19.158 10.994 35.301 0 11.407-0.55128 15.358-2.9766 21.333-6.0316 14.86-19.074 27.857-33.662 33.545-11.25 4.3862-28.822 4.7499-40.036 0.82871zm35.314-11.801c9.2951-3.4778 21.055-14.052 25.708-23.117 5.009-9.7577 5.7746-26.345 1.7131-37.118-3.7966-10.07-13.906-21.098-23.78-25.94-6.6809-3.2759-9.0993-3.7208-20.253-3.7257-11.882-5e-3 -13.185 0.27529-21.024 4.5265-9.9995 5.4224-16.705 12.497-21.462 22.641-3.0022 6.4027-3.5051 9.2398-3.4555 19.493 0.0522 10.784 0.48331 12.825 4.2542 20.139 5.1149 9.9204 14.986 19.109 24.593 22.894 9.6848 3.815 23.83 3.9018 33.706 0.20671zm-23.279-55.239v-16.667h13.333v21.333h20v12h-33.333zm-178.24-72.591c-8.9094-4.045-10.295-8.0043-10.854-31.005l-0.47595-19.596-11.092-0.80818-0.79974-15.333h12.133v-7.17c0-4.1601 0.69964-7.7108 1.6667-8.4581 1.4886-1.1505 16.461-5.705 18.754-5.705 0.50189 0 0.91252 4.8 0.91252 10.667v10.667h9.9999c5.5 0 9.9518 0.45 9.893 0.99999-0.0588 0.55-1.1088 4-2.3333 7.6666l-2.2264 6.6666-15.333 0.79974v17.103c0 21.333 0.41726 21.88 13.674 17.941 1.7862-0.53079 2.9723 0.77682 5.0042 5.5171 1.4647 3.417 2.3354 6.7429 1.9349 7.391-1.1692 1.8918-13.948 5.2501-19.856 5.2182-2.9835-0.0161-7.9348-1.1689-11.003-2.5619zm-125.75-46.058v-47.59l20.442 0.453c20.042 0.44412 20.568 0.53138 26.859 4.453 3.5327 2.2022 7.5287 6.088 8.8909 8.6458 4.464 8.3819 2.5399 21.392-4.0296 27.246l-2.8719 2.5592 4.994 2.8013c9.0617 5.083 13.708 18.911 9.8043 29.179-1.9445 5.1145-9.3005 12.776-15.296 15.932-4.7876 2.5201-8.1261 2.9375-27.126 3.3918l-21.667 0.51805zm40.337 27.337c6.8586-5.395 5.6751-14.759-2.2857-18.085-2.5478-1.0645-7.6515-1.9355-11.342-1.9355h-6.7094v22.667h8.4868c6.4453 0 9.2958-0.63638 11.85-2.6456zm-8.5078-37.494c7.2387-2.5234 9.2557-11.114 3.9384-16.774-2.2536-2.3988-4.3316-3.0859-9.3333-3.0859h-6.4342v21.333h3.801c2.0906 0 5.7032-0.6631 8.0281-1.4736zm44.171 23.473v-34h20v68h-20zm87.555 33.111c-0.48889-0.48889-0.88889-15.789-0.88889-34v-33.111h8.7914c7.6701 0 8.8804 0.34013 9.4888 2.6666 0.38354 1.4667 0.86612 2.6666 1.0724 2.6666s2.9863-1.4928 6.1778-3.3172c6.4712-3.6994 16.394-4.4941 20.315-1.627 2.2348 1.6341 2.1994 2.1047-0.68934 9.1817l-3.0448 7.4593-7.3891-0.6569c-6.1923-0.5505-7.983-0.18633-11.056 2.2484l-3.6666 2.9053v46.473h-9.111c-5.0111 0-9.511-0.4-9.9999-0.88888zm52.052 0.05286c-0.51796-0.51796-0.94175-15.867-0.94175-34.109v-33.167l20.667 0.77883v66.666l-9.3915 0.38619c-5.1653 0.2124-9.8153-0.03759-10.333-0.55555zm25.725 0.0334c0-0.44144 5.4-7.945 12-16.675 6.6-8.7296 12-16.339 12-16.911 0-0.57124-5.0958-7.9175-11.324-16.325s-11.328-15.737-11.333-16.287c-5e-3 -0.55 4.434-0.99999 9.8645-0.99999h9.8737l6.919 9.3333c3.8055 5.1333 7.3354 9.3333 7.8443 9.3333s3.9021-4.193 7.5404-9.3178l6.6151-9.3178 10.333-0.01545c5.6833-0.0085 10.333 0.30902 10.333 0.7056 0 0.39658-5.446 7.933-12.102 16.748l-12.102 16.027 11.499 15.31c6.3247 8.4203 11.835 16.184 12.245 17.252 0.61221 1.5954-1.0525 1.9425-9.3151 1.9425h-10.061l-7.082-9.9322c-3.8951-5.4627-7.4593-9.9627-7.9204-9.9999-0.46115-0.03724-4.2254 4.4322-8.365 9.9322l-7.5266 9.9999h-9.9682c-5.4825 0-9.9682-0.36118-9.9682-0.80262zm-158-76.243c-8.5512-1.7755-11.724-13.351-5.3939-19.681 4.7291-4.7291 11.736-4.469 16.83 0.6247 4.1678 4.1678 4.7832 7.3662 2.4168 12.56-2.0397 4.4767-8.6502 7.5769-13.853 6.4967zm133.27-3.5602c-7.1315-7.1315-1.7085-19.394 8.5768-19.394 10.425 0 16.029 12.242 8.8776 19.394-2.4081 2.4081-4.7138 3.2727-8.7272 3.2727s-6.3192-0.86464-8.7272-3.2727z" fill="#c3c9bb"></path><path d="m-0.76756 314.2c-1.604-4.1798 4.8675-27.193 11.309-40.218 8.5494-17.285 20.024-29.793 43.266-47.161 9.6388-7.2027 20.037-15.834 23.108-19.18 8.6701-9.4485 9.9703-19.02 3.8521-28.358-5.7646-8.7978-29.224-9.7558-50.768-2.0732-6.6 2.3536-12.911 4.5739-14.025 4.9339-1.5493 0.50079-3.0376-2.4339-6.3333-12.489-2.3694-7.2288-4.3081-13.489-4.3081-13.911 0-1.2803 12.213-6.1161 24.272-9.6108 15.852-4.5937 33.404-6.368 46.612-4.7119 32.273 4.0467 48.007 21.067 46.155 49.93-1.1924 18.58-10.494 31.239-39.686 54.015-19.244 15.014-29.23 24.911-33.244 32.948l-2.8302 5.6666h78.72v32h-62.708c-51.103 0-62.835-0.32979-63.392-1.7821zm198.1-18.846v-20.705h-77.333v-24.182l85.999-109.2 26.666 0.7187v101.33l25.333 1.3333v29.333l-24.598 0.76582-0.36779 20.284-0.36779 20.284-35.333 0.74406zm-7.0594-51.364 6.9405-8e-3 0.39278-23.335c0.21603-12.834 0.28108-23.334 0.14456-23.333-0.13652 9e-4 -7.8761 10.052-17.199 22.335-9.323 12.283-17.611 23.181-18.418 24.218-1.25 1.6053 0.21208 1.7547 9.8658 1.008 6.2333-0.48216 14.456-0.88024 18.274-0.88464zm112.39-4.5c-22.734-6.6588-39.065-24.871-43.023-47.977-1.8555-10.832-0.16458-22.574 4.8184-33.458 3.9537-8.6359 15.027-20.879 23.234-25.689 32.658-19.139 73.981-3.2996 85.591 32.806 3.7782 11.75 3.3384 27.383-1.0918 38.809-5.69 14.676-18.937 27.908-33.529 33.491-9.1488 3.5006-27.436 4.5248-36 2.0163zm35.394-14.481c9.2069-4.7378 17.597-13.465 22.138-23.026 3.251-6.8461 3.799-9.6346 3.799-19.333 0-9.6836-0.55133-12.499-3.7878-19.34-4.89-10.336-16.082-20.748-26.548-24.695-9.7168-3.665-25.614-3.16-35.288 1.1211-8.8005 3.8942-17.878 12.723-22.823 22.198-3.8496 7.3762-4.2013 9.1073-4.2089 20.715-7e-3 11.177 0.42981 13.559 3.7174 20.253 4.6334 9.4354 15.852 19.935 25.283 23.664 10.22 4.0405 28.289 3.2942 37.718-1.5578zm-27.394-53.766v-16.74l12.351 0.81278 0.1576 9.9999 0.15761 9.9999 20.667 0.77883v11.888h-33.333zm-174.74-71.191c-11.938-3.6226-13.255-6.7948-13.255-31.93v-19.993l-12.667-0.81277-0.79522-15.182 12.795-0.81802 0.79714-15.246 8.8282-2.6485c4.8555-1.4567 9.3261-2.3408 9.9347-1.9647 0.60854 0.3761 1.1064 5.1231 1.1064 10.549v9.8652l19.668 0.77883-2.2094 7.3333-2.2094 7.3333-15.916 0.77172 0.41381 16.908c0.2476 10.116 1.0261 17.645 1.9381 18.744 1.4832 1.7871 6.7855 1.6031 11.874-0.41214 1.7184-0.68054 2.8725 0.57979 5.0607 5.5267 2.6155 5.9127 2.664 6.5331 0.62715 8.0224-4.8075 3.5153-19.111 5.2623-25.992 3.1745zm-129.25-47.385v-47.595l19.667 0.45562c23.596 0.54664 30.074 2.7917 35.685 12.367 5.4325 9.2699 3.5946 22.939-3.7789 28.103-1.5101 1.0577-2.4819 2.1328-2.1595 2.389 0.32242 0.25618 2.7936 1.7926 5.4916 3.4143 5.866 3.5259 10.44 12.148 10.399 19.602-0.03642 6.5245-3.7624 14.782-8.8025 19.508-7.3385 6.8814-12.702 8.2114-35.501 8.8042l-21 0.54592zm39.123 28.502c6.471-2.9484 7.9382-11.028 3.0372-16.726-2.8003-3.2555-4.2867-3.7513-12.667-4.2248l-9.494-0.53646v22.967h7.9372c4.3655 0 9.3993-0.66616 11.186-1.4804zm-3.8094-40.384c2.651-1.737 3.3525-3.3064 3.3525-7.4992 0-7.5525-3.4788-10.636-12-10.636h-6.6666v21.68l5.9807-0.67411c3.2894-0.37076 7.4894-1.6626 9.3333-2.8708zm41.575 58.309c-0.48888-0.48889-0.88888-15.789-0.88888-34v-33.111h20v68h-9.1111c-5.0111 0-9.511-0.4-9.9999-0.88888zm86.377-0.80414c-0.35732-0.93116-0.48849-16.081-0.29148-33.666l0.35818-31.973 8.4407-0.39974c7.5635-0.3582 8.515-0.1157 9.1554 2.3333 0.89217 3.4116 1.2091 3.3856 7.737-0.63503 5.975-3.6801 15.893-4.4662 19.85-1.5732 2.2325 1.6325 2.1761 2.14-1.049 9.4325-3.0418 6.8781-3.7337 7.604-6.4315 6.7477-5.0321-1.5971-10.654-0.87996-14.274 1.8208l-3.4283 2.5579-0.7282 47.049h-9.3444c-6.3231 0-9.5544-0.54739-9.994-1.693zm52.733-30.973c0-17.967-0.15-33.116-0.33333-33.666-0.18333-0.55 4.0166-1.1763 9.3333-1.3917l9.6666-0.39174v68.116h-18.667zm25.333 31.945c0-0.39658 5.4488-7.9367 12.108-16.756 7.2149-9.5545 11.808-16.817 11.365-17.971-0.40866-1.065-5.5574-8.4575-11.442-16.428-5.8843-7.9704-10.699-14.859-10.699-15.308s4.4604-0.81608 9.912-0.81608h9.912l14.47 20.065 15.102-20.065h10.047c7.6842 0 9.8107 0.39194 9.0427 1.6667-0.55232 0.91666-6.0402 8.3889-12.195 16.605-7.281 9.7188-10.827 15.542-10.149 16.667 0.57328 0.95057 6.0258 8.3805 12.117 16.511 6.0909 8.1305 11.074 15.18 11.074 15.667s-4.3826 0.88381-9.7391 0.88381h-9.7391l-7.2608-9.9626c-3.9934-5.4794-7.6872-9.9794-8.2083-9.9999-0.52113-0.02052-4.2754 4.4627-8.3428 9.9626l-7.3953 9.9999h-9.9904c-5.4947 0-9.9904-0.32447-9.9904-0.72105zm-163.39-79.884c-5.3952-5.3952-4.32-14.094 2.156-17.443 8.5917-4.4429 17.771 0.29546 17.771 9.1733 0 10.464-12.532 15.665-19.927 8.2698zm138.67 0c-4.5874-4.5874-4.3481-10.524 0.62471-15.496 2.66-2.66 5.2325-3.8974 8.1025-3.8974 4.9652 0 12 6.2317 12 10.63 0 3.8637-3.4239 10.197-6.0597 11.208-4.929 1.8914-11.412 0.81097-14.667-2.4445z" fill="#bdc2b3"></path><path d="m-0.60828 314.74c-0.92114-1.4904 2.6158-19.381 5.5449-28.048 5.0232-14.862 15.552-31.137 27.235-42.098 3.9386-3.6951 15.561-13.108 25.828-20.917s20.045-16.265 21.731-18.791c9.1876-13.768 5.5919-26.956-8.6295-31.65-8.4795-2.7985-27.468-0.98403-41.101 3.9274-6.6 2.3777-12.911 4.6177-14.025 4.9777-1.552 0.50166-3.065-2.5176-6.4749-12.921-5.1185-15.616-5.9314-14.004 9.9818-19.791 15.74-5.7236 29.16-8.117 45.515-8.117 22.045 0 35.295 4.2925 45.859 14.856 8.7218 8.7218 11.144 15.49 11.143 31.143-2.4e-4 11.794-0.41654 14.18-3.6062 20.667-5.2805 10.739-15.196 21.095-34.861 36.408-20.447 15.923-30.187 25.435-34.063 33.268l-2.7991 5.6563 78.747 0.70648-0.37547 15.647-0.37548 15.647-62.246 0.34646c-38.219 0.21273-62.548-0.14187-63.028-0.91864zm197.94-19.428v-20.667h-77.333v-23.91l85.999-109.36 25.968-0.06 0.69798 103.33 26.089 0.76431-0.37795 14.284-0.37794 14.284-26 0.76323v41.236h-34.666zm0-73.999c0.36666-12.833 0.56767-23.532 0.44668-23.775-0.20156-0.40515-22.652 28.668-32.547 42.148l-4.1887 5.7063 35.622-0.74608zm105.47 17.89c-10.733-2.8862-19.277-8.0782-27.526-16.726-22.34-23.422-21.557-59.202 1.7841-81.465 16.198-15.45 36.477-20.587 56.661-14.352 38.529 11.9 54.222 55.5 32.017 88.952-13.367 20.138-39.438 29.91-62.937 23.591zm35.579-14.598c10.869-5.4374 16.406-11.165 21.783-22.532 3.281-6.9352 3.8286-9.7142 3.8286-19.426 0-9.6986-0.54795-12.487-3.799-19.333-7.9694-16.782-22.265-26.257-40.865-27.087-15.089-0.67333-23.944 2.7983-34.783 13.637-10.044 10.044-13.883 19.11-13.883 32.783 0 12.576 3.7162 22.013 12.427 31.557 9.9208 10.869 19.289 14.968 34.393 15.048 10.544 0.0562 12.26-0.32531 20.898-4.6467zm-27.719-53.251v-16.708h11.888l0.38941 10.333 0.38942 10.333 20 1.3333v10.667l-32.666 0.74874zm-173.33-71.286c-2.5666-0.51212-5.9278-1.7303-7.4692-2.707-5.7966-3.6731-6.5029-6.491-7.1974-28.714l-0.66666-21.333-12.801-0.81825 0.80076-13.848 12.667-0.81277v-7.9269c0-4.3598 0.15191-7.9269 0.33757-7.9269 0.18567 0 4.3856-1.1576 9.3333-2.5725l8.9957-2.5725v21.145h9.9999c10.922 0 10.753-0.17219 8.5234 8.6829l-1.4765 5.8638-16.38 0.78647-0.33557 15.333c-0.39393 18 0.9044 22.035 7.0596 21.938 2.1684-0.03409 5.2099-0.49829 6.7589-1.0316 2.4211-0.83351 3.2011-0.08065 5.5582 5.3646 1.508 3.4838 2.5061 6.7157 2.218 7.1819-1.5624 2.528-19.434 5.2635-25.926 3.9682zm-130.67-47.421v-47.333h15.934c8.7638 0 19.011 0.65986 22.772 1.4664 11.689 2.5069 19.96 12.125 19.96 23.21 0 5.4048-4.1551 14.446-7.6572 16.662-1.8697 1.183-1.9681 1.6363-0.48723 2.2455 1.0205 0.41983 4.1661 2.8509 6.9903 5.4023 15.831 14.302 5.7635 40.013-17.361 44.336-3.9501 0.73852-14.6 1.3428-23.667 1.3428h-16.485zm41.226 27.666c1.5702-1.2833 3.1981-4.4784 3.6176-7.1001 0.61442-3.8399 0.11068-5.5251-2.5908-8.6666-3.1268-3.6363-3.9994-3.8998-12.91-3.8998h-9.557l-0.45219 22.001 9.5189-5.23e-4c7.0886-3.89e-4 10.248-0.59626 12.374-2.3338zm-5.3528-39.552c3.3469-3.0289 4.0893-7.6631 2.0172-12.591-1.2906-3.0695-3.0207-4.3916-7.2301-5.5251-10.439-2.811-11.149-2.1624-10.946 10.002 0.09775 5.8666 0.20207 10.893 0.23182 11.17 0.16028 1.4902 13.795-1.125 15.927-3.055zm40.75 57.587c-0.37026-0.9649-0.51202-16.142-0.31502-33.728l0.35819-31.973 19.379-0.78442-0.7127 67.451-9.0182 0.39467c-6.5175 0.28523-9.2049-0.09181-9.6915-1.3597zm87.376-32.368v-34h7.8888c7.1916 0 7.987 0.29002 8.9999 3.2814l1.1111 3.2814 5.8673-3.948c6.4468-4.338 16.285-5.4141 20.606-2.254 2.175 1.5904 2.1101 2.1614-1.0617 9.3333-1.8581 4.2016-3.5964 7.6392-3.8629 7.6392-0.26649 0-2.3353-0.6452-4.5974-1.4338-3.3682-1.1742-5.2148-0.94633-10.199 1.2584l-6.086 2.6921v48.15h-18.667zm52 0v-34h18.667v68h-18.667zm26.666 32.612c0-0.76324 5.362-8.4884 11.915-17.167l11.915-15.779-11.915-16.155c-6.5535-8.8851-11.915-16.46-11.915-16.833s4.3755-0.67808 9.7232-0.67808h9.7232l15.014 20.252 14.977-20.252h10.111c7.8862 0 9.8275 0.36668 8.8234 1.6667-12.917 16.723-23.042 31.92-22.194 33.31 0.56697 0.92948 6.0088 8.3932 12.093 16.586s11.062 15.243 11.062 15.667c0 0.42372-4.1571 0.77039-9.238 0.77039-10.493 0-10.392 0.06582-19.579-12.808l-6.1466-8.6137-15.981 21.422h-9.194c-5.4807 0-9.194-0.56048-9.194-1.3877zm-164.73-79.218c-4.8804-4.8804-4.4753-11.478 0.98684-16.074 8.019-6.7476 18.407-1.8201 18.407 8.7314 0 9.6917-12.364 14.373-19.394 7.343zm140.61 1.5636c-2.8177-2.1633-5.2178-6.8224-5.2178-10.129 0-4.3082 5.4778-9.5022 10.938-10.371 4.2667-0.67918 5.4904-0.23377 8.9999 3.2758 5.0027 5.0027 5.1834 9.3961 0.60999 14.831-2.7173 3.2294-4.4906 4.0932-8.3333 4.0599-2.6848-0.02332-5.8334-0.77332-6.997-1.6667z" fill="#b4b6a6"></path><path d="m197.84 313.98c-0.26557-0.73333-0.63906-10.033-0.82997-20.667l-0.34711-19.333-76.666-0.70755v-22.326l85.999-108.97 26-0.76322v104.1h25.333v27.9l-24.666 0.76673-0.66666 20.423-0.66666 20.423-16.503 0.24396c-10.018 0.1481-16.693-0.27998-16.986-1.0894zm-0.2533-92.999c0.28388-13.383 0.47676-24.449 0.42862-24.59-0.12196-0.35733-34.441 44.852-35.752 47.097-0.88062 1.508 2.0565 1.8259 16.87 1.8259h17.937zm-198.11 89.333c3.9818-23.126 10.851-39.369 23.25-54.971 7.5264-9.4711 14.648-15.662 41.943-36.458 15.283-11.644 19.833-17.946 19.926-27.589 0.08182-8.5265-2.9106-13.371-10.684-17.297-10.036-5.0688-31.359-2.7092-52.29 5.7864-5.2794 2.1428-7.1972 2.4419-7.6596 1.1945-2.5877-6.9813-8.5527-25.515-8.2904-25.76 1.4262-1.3293 19.709-7.876 28.326-10.143 13.346-3.511 37.502-4.7282 49.024-2.4703 17.309 3.3919 29.198 11.862 35.495 25.287 2.9447 6.2788 3.4809 9.2705 3.4809 19.422 0 10.151-0.53381 13.13-3.4648 19.333-5.3098 11.238-13.352 20.381-28.264 32.134-27.505 21.678-33.206 26.858-38.392 34.882-2.8665 4.4351-5.2119 8.5617-5.2119 9.1702 0 0.60856 17.55 1.2655 39 1.46l39 0.35347 0.377 15 0.377 15h-126.69zm306.09-70.342c-29.578-6.2522-50.399-36.393-45.587-65.99 1.9499-11.993 9.3391-25.835 18.034-33.782 23.321-21.314 56.562-21.147 79.148 0.39574 13.229 12.618 19.677 28.404 18.497 45.28-1.6099 23.027-16.643 43.46-37.797 51.375-8.5621 3.2035-23.9 4.4958-32.295 2.721zm28.086-12.771c22.322-7.8756 35.594-32.54 29.761-55.308-3.9411-15.384-12.088-25.166-26.749-32.117-6.8514-3.2484-9.627-3.7912-19.333-3.781-13.845 0.0146-22.669 3.5673-32.443 13.061-9.9812 9.6951-13.265 17.191-13.957 31.86-0.54144 11.479-0.3198 12.821 3.4458 20.868 10.726 22.921 35.834 33.687 59.275 25.417zm-22.099-40.109c-0.48888-0.48888-0.88888-7.9888-0.88888-16.667v-15.778h12v21.333h20v12h-15.111c-8.311 0-15.511-0.4-16-0.88889zm-178.89-88.383c-1.4667-0.60665-4.1666-2.7151-6-4.6855-3.2017-3.441-3.3596-4.4341-4-25.146l-0.66666-21.563-11.333-0.81999v-14.513h12v-15.581l18.667-5.4453v21.027h9.9999c11.128 0 11.373 0.28111 8.1202 9.3333-1.6136 4.4908-1.974 4.6918-9.5652 5.3333l-7.8883 0.66666v17.717c0 14.272 0.38896 17.975 2 19.041 2.0602 1.3634 8.35 1.037 12.158-0.63101 1.65-0.72271 2.6705 0.33479 4.3333 4.4904 2.9617 7.4019 2.8394 7.9069-2.4488 10.116-4.9643 2.0742-20.952 2.49-25.376 0.65992zm-126-46.876v-46.815l19 0.54314c15.509 0.44336 20.11 1.0457 25.044 3.2786 15.217 6.8872 19.204 23.253 8.5407 35.056l-4.5978 5.0893 4.0335 1.6707c2.2184 0.91891 5.5054 3.4199 7.3043 5.5579 10.66 12.669 5.5505 31.756-10.502 39.23-6.2739 2.9213-8.5117 3.1779-27.823 3.1898l-21 0.013025zm35.333 30.849c6.4235-1.4883 10.015-5.5211 9.9575-11.182-0.082457-8.1391-5.3257-11.519-17.87-11.519h-8.7543v11.111c0 6.1111 0.4 11.511 0.88888 12 1.2597 1.2597 9.4937 1.0455 15.778-0.41045zm-0.32965-41.346c9.846-7.7449 2.1044-21.081-11.472-19.762l-4.1981 0.40772-0.77451 22h6.5407c4.5044 0 7.5878-0.82363 9.904-2.6456zm42.329 25.312c0-17.6-0.15-32.45-0.33333-33-0.18333-0.55 4.0166-1.1763 9.3333-1.3917l9.6666-0.39174v66.783h-18.667zm86.666-1.3333v-33.333h7.9745c7.3942 0 8.0354 0.24258 8.8112 3.3333 0.46013 1.8333 1.1116 3.3333 1.4477 3.3333 0.33609 0 2.7743-1.65 5.4183-3.6666 3.9624-3.0222 6.1612-3.6666 12.511-3.6666 4.2371 0 8.2896 0.6 9.0056 1.3333 1.8208 1.8648-4.4554 16.186-6.766 15.438-4.3693-1.4131-12.696-0.50664-16.069 1.7494l-3.6666 2.452v46.36h-18.667zm52 0v-33.333h18.667v66.666h-18.667zm26.666 32.612c0-0.39658 5.4184-7.8965 12.041-16.667l12.041-15.946-12.041-15.946c-6.6226-8.77-12.041-16.27-12.041-16.667 0-0.39658 4.371-0.72105 9.7134-0.72105h9.7134l7.1517 9.9999c3.9334 5.5 7.5123 9.9695 7.9531 9.9322 0.4408-0.03724 3.9883-4.5372 7.8834-9.9999l7.082-9.9322h20.152l-3.2548 4.3333c-17.776 23.666-21.062 28.23-21.062 29.258 0 0.65141 5.4184 8.3599 12.041 17.13l12.041 15.946h-20.019l-7.5266-9.9999c-4.1396-5.5-7.6365-9.9999-7.7708-9.9999-0.13436 0-3.5116 4.4832-7.5051 9.9626l-7.2608 9.9626-9.6666 0.03731c-5.3166 0.02052-9.6666-0.28716-9.6666-0.68373zm-164.73-78.551c-8.4265-8.4265 0.69527-21.811 12.263-17.994 11.803 3.8952 8.3702 21.266-4.2023 21.266-3.3056 0-5.801-1.0132-8.0606-3.2727zm139.13-0.78069c-3.4074-3.4073-3.9171-4.7348-3.1983-8.3286 1.2604-6.3022 5.1624-9.5572 11.457-9.5572 7.0009 0 11.2 4.03 11.2 10.749 0 3.6607-0.91186 5.6534-3.6743 8.0296-5.1675 4.4449-10.763 4.1284-15.784-0.89287z" fill="#b3ac91"></path><path d="m16.28-185.06c2.5485-20.397 12.418-40.95 27.225-56.698 5.5713-5.9251 18.237-16.886 28.147-24.358 9.9093-7.4717 19.896-15.725 22.192-18.34 8.8-10.023 9.3497-22.538 1.3135-29.903-9.5944-8.7926-26.229-9.1477-49.422-1.0548-7.3885 2.5781-13.955 4.8269-14.593 4.9973-0.6374 0.17038-3.1599-5.5853-5.6056-12.79l-4.4467-13.1 7.6056-3.3798c26.914-11.96 63.759-14.253 83.666-5.2069 24.026 10.918 32.469 37.905 19.734 63.076-4.5466 8.9862-15.461 20.041-33.614 34.048-23.354 18.019-33.341 28.533-35.581 37.459l-0.88798 3.538h78.955v29.333h-125.64zm196.69-13.047v-20.667h-77.333l0.0247-11 0.0247-11 86.831-110h25.118v104h25.333v28h-25.333v41.333h-34.666zm0.38647-72.962c0.43953-13.363 0.62083-24.474 0.4029-24.692-0.47251-0.47251-36.789 47.141-36.789 48.233 0 0.41517 8.0071 0.75485 17.794 0.75485h17.794zm110.28 18.758c-17.969-2.9318-34.332-15.327-42.715-32.357-4.0263-8.1795-4.5955-10.679-5.0088-22-0.52872-14.482 1.8608-23.557 9.2233-35.031 8.191-12.764 23.518-22.364 40.186-25.17 11.157-1.8779 23.85 0.58237 35.764 6.9323 20.593 10.976 33.487 37.055 29.37 59.4-5.9542 32.315-35.157 53.391-66.82 48.225zm28.792-13.668c10.249-4.6756 19.394-13.773 24.103-23.98 3.189-6.9117 3.7599-9.87 3.7652-19.508 6e-3 -10.13-0.46336-12.315-4.327-20.163-5.157-10.475-13.557-18.677-24.1-23.531-10.752-4.9498-26.845-4.9103-37.882 0.0929-18.712 8.4819-30.873 29.856-28.237 49.629 4.2192 31.65 37.916 50.581 66.678 37.46zm-24.792-54.793v-16.667h10.667v21.333h20v12h-30.666zm-180.93-73.946c-7.377-4.498-8.398-8.2247-8.398-30.654v-20.066h-12v-14.667h12v-15.563l7.9798-2.2186c4.3889-1.2202 8.5889-2.2186 9.3333-2.2186 0.79542 0 1.3535 4.123 1.3535 9.9999v9.9999h9.9999c5.5 0 9.9908 0.45 9.9797 1-0.0111 0.54999-0.82502 3.7-1.8086 7l-1.7884 6-16.383 0.7939v16.691c0 9.1798 0.6211 17.851 1.3802 19.27 1.5159 2.8325 6.9157 3.4143 12.386 1.3346 3.0299-1.152 3.4438-0.79711 5.5736 4.7798 1.2695 3.3242 1.7837 6.4895 1.1472 7.0624-5.1086 4.5979-24.126 5.4983-30.755 1.4561zm-124.4-44.608v-46.112l19.667 0.0293c25.838 0.0385 31.719 2.4587 37.065 15.255 3.1572 7.5563 1.6214 15.579-4.22 22.045-4.2679 4.7241-4.4241 5.1858-2.0127 5.9511 8.2736 2.6259 13.882 11.321 13.882 21.524 0 9.4626-4.4795 17.244-12.938 22.474-6.5259 4.0353-6.6641 4.0567-29 4.5003l-22.443 0.44572zm37.935 29.334c4.9836-2.0823 7.3978-5.5358 7.3978-10.583 0-8.2918-5.0366-11.53-17.934-11.53h-8.7328v11.111c0 6.1111 0.4 11.511 0.88888 12 1.595 1.595 13.754 0.93469 18.38-0.99823zm-1.8329-42.01c4.7314-4.7314 4.9879-9.3526 0.79001-14.233-2.5197-2.9293-4.5371-3.7311-10.667-4.2394l-7.5592-0.62687v22.997h6.7692c5.704 0 7.3825-0.61331 10.667-3.8974zm41.23 25.17v-33.394l18 0.7885 0.35663 33 0.35662 33h-18.713zm86.666 0.0609v-33.333h7.9999c5.5002 0 8.0063 0.52079 8.0204 1.6667 0.0572 4.6652 2.2287 5.2029 7.2501 1.7954 5.6671-3.8458 12.443-5.491 17.444-4.2357 4.7978 1.2042 5.2152 3.5585 1.9687 11.105l-2.8353 6.5909-5.3428-1.4261c-4.5403-1.2119-6.0809-1.0306-10.257 1.2066l-4.9147 2.6327-0.7282 47.331h-18.605zm52 0v-33.333h18.667v66.666h-18.667zm27.513 31.666c0.55233-0.91666 6.0389-8.387 12.192-16.601l11.188-14.934-24.327-32.798 8.2425-0.40196c4.5334-0.22107 9.0274-0.10075 9.9867 0.26738 0.95935 0.36814 4.8207 4.899 8.5807 10.069s7.2383 9.3824 7.7294 9.3619c0.49116-0.0205 4.1604-4.5205 8.1538-9.9999l7.2608-9.9626h9.0724c4.9898 0 9.0724 0.39772 9.0724 0.88381s-5.1 7.6736-11.333 15.972c-6.2333 8.2987-11.333 15.799-11.333 16.667 0 0.86794 5.1 8.3679 11.333 16.667 6.2333 8.2987 11.333 15.401 11.333 15.783 0 0.38185-4.1273 0.69427-9.1717 0.69427h-9.1717l-7.5569-10.04c-4.1563-5.5221-8.0097-9.7604-8.563-9.4184-0.55336 0.342-3.9754 4.8504-7.6045 10.019l-6.5984 9.3968-9.7453 0.0217c-7.447 0.0165-9.5085-0.37139-8.7411-1.645zm-164.95-78.23c-4.6006-4.6006-4.9634-9.0544-1.134-13.923 3.7518-4.7697 12.713-4.9948 17.004-0.42721 3.9752 4.2314 3.8116 10.789-0.37363 14.975-4.5874 4.5874-10.524 4.3481-15.496-0.62471zm139.76 1.2518c-4.4155-3.4732-5.5611-8.3945-3.0739-13.204 2.2676-4.385 4.4416-5.4834 10.853-5.4834 6.2514 0 9.8909 3.8893 9.8909 10.57 0 9.2866-10.217 13.98-17.67 8.1178z" fill="#c3a77a"></path><path d="m124.5 299.98c0-8.4333 0.21649-11.883 0.48109-7.6666s0.2646 11.117 0 15.333-0.48109 0.76666-0.48109-7.6666zm35.496-54.481c0-0.63164 1.5-0.86169 3.3333-0.51123s3.3333 0.86726 3.3333 1.1484c0 0.28118-1.5 0.51123-3.3333 0.51123s-3.3333-0.51679-3.3333-1.1484zm155.67-5.0679c0.91666-0.36988 2.4166-0.36988 3.3333 0s0.16666 0.67251-1.6667 0.67251-2.5833-0.30263-1.6666-0.67251zm-213-12.954c0-0.27687 1.05-1.3269 2.3333-2.3333 2.1147-1.6585 2.1619-1.6113 0.50341 0.5034-1.7418 2.221-2.8367 2.9273-2.8367 1.8299zm94.877-14.163c0-1.8333 0.30263-2.5833 0.67251-1.6667s0.36988 2.4166 0 3.3333-0.67251 0.16667-0.67251-1.6666zm122.17-26.322c4.612-0.2611 11.812-0.25895 16 5e-3 4.1879 0.26375 0.41441 0.47738-8.3855 0.47474-8.7999-3e-3 -12.226-0.21842-7.6144-0.47953zm0.0311-62.588c0.9625-0.38516 2.1125-0.33779 2.5555 0.10526s-0.34444 0.75818-1.75 0.70029c-1.5532-0.064-1.8692-0.37992-0.80555-0.80555zm-248.98-53.2c0.06398-1.5532 0.37992-1.8692 0.80555-0.80555 0.38516 0.96249 0.33779 2.1125-0.10526 2.5555-0.44305 0.44305-0.75818-0.34444-0.70029-1.75zm149.33-60c0.064-1.5532 0.37992-1.8692 0.80555-0.80555 0.38516 0.96249 0.33779 2.1125-0.10526 2.5555-0.44305 0.44305-0.75818-0.34444-0.70029-1.75z" fill="#bca57d"></path></g></svg> 