<?xml version="1.0" encoding="UTF-8"?> <svg xmlns="http://www.w3.org/2000/svg" viewBox="0 -1 100 50" fill="#C5A87B"><path d="m7.6 10.1 14.2 0c4.2 0 7.2 1.2 9.1 3.6 1.9 2.4 2.5 5.6 1.9 9.7-0.2 1.9-0.8 3.7-1.6 5.5-0.8 1.8-1.9 3.4-3.4 4.9-1.8 1.8-3.7 3-5.7 3.5-2 0.5-4.1 0.7-6.3 0.7l-6.4 0-2 10.1-7.4 0 7.6-38 0 0m6.2 6-3.2 15.9c0.2 0 0.4 0.1 0.6 0.1 0.2 0 0.5 0 0.7 0 3.4 0 6.2-0.3 8.5-1 2.3-0.7 3.8-3.3 4.6-7.7 0.6-3.7 0-5.8-1.9-6.4-1.9-0.6-4.2-0.8-7-0.8-0.4 0-0.8 0.1-1.2 0.1-0.4 0-0.7 0-1.1 0l0.1-0.1"></path><path d="m41.1 0 7.3 0-2.1 10.1 6.6 0c3.6 0.1 6.3 0.8 8.1 2.2 1.8 1.4 2.3 4.1 1.6 8.1l-3.6 17.6-7.4 0 3.4-16.9c0.4-1.8 0.2-3-0.3-3.8-0.6-0.7-1.8-1.1-3.7-1.1l-5.9-0.1-4.3 21.8-7.3 0 7.6-38.1 0 0"></path><path d="m70.4 10.1 14.2 0c4.2 0 7.2 1.2 9.1 3.6 1.9 2.4 2.5 5.6 1.9 9.7-0.2 1.9-0.8 3.7-1.6 5.5-0.8 1.8-1.9 3.4-3.4 4.9-1.8 1.8-3.7 3-5.7 3.5-2 0.5-4.1 0.7-6.3 0.7l-6.4 0-2 10.1-7.4 0 7.6-38 0 0m6.2 6-3.2 15.9c0.2 0 0.4 0.1 0.6 0.1 0.2 0 0.5 0 0.7 0 3.4 0 6.2-0.3 8.5-1 2.3-0.7 3.8-3.3 4.6-7.7 0.6-3.7 0-5.8-1.9-6.4-1.9-0.6-4.2-0.8-7-0.8-0.4 0-0.8 0.1-1.2 0.1-0.4 0-0.7 0-1.1 0l0.1-0.1"></path></svg> 