<?xml version="1.0" encoding="UTF-8"?> <svg xmlns="http://www.w3.org/2000/svg" width="190" height="190" viewBox="0 0 190.2 190.2" fill="#C5A87B"><path d="M127.1 122.1v-0.8H15.3c-5 0-9-4.1-9-9V33.7c0-5 4.1-9 9-9h146.1c5 0 9 4.1 9 9V38.9h6.2v-5.2c0-8.4-6.9-15.3-15.3-15.3H15.3C6.9 18.4 0 25.3 0 33.7v97.3c0 8.4 6.9 15.3 15.3 15.3h66.8v13H35.4l-6.2 6.2v6.2h118.5v-6.2l-6.2-6.2H94.6v-13h66.8c5.6 0 10.4-3 13.1-7.5h-30.7C134.6 138.8 127.1 131.3 127.1 122.1z"></path><path d="M179.7 45.1h-36c-5.7 0-10.4 4.7-10.4 10.4v66.5c0 5.7 4.7 10.4 10.4 10.4h36c5.7 0 10.5-4.7 10.5-10.4V55.6C190.2 49.8 185.5 45.1 179.7 45.1zM161.7 127.9c-2 0-3.6-1.6-3.6-3.6 0-2 1.6-3.6 3.6-3.6 2 0 3.6 1.6 3.6 3.6C165.4 126.3 163.7 127.9 161.7 127.9zM185.9 109.3c0 3.4-2.8 6.2-6.2 6.2h-36c-3.4 0-6.2-2.8-6.2-6.2V55.6c0-3.4 2.8-6.2 6.2-6.2h36c3.4 0 6.2 2.8 6.2 6.2V109.3z"></path><polygon points="127.1 82.6 85 61.6 85 76.4 66.9 76.4 66.9 88.9 85 88.9 85 103.7 "></polygon></svg> 