<?xml version="1.0" encoding="UTF-8"?> <svg xmlns="http://www.w3.org/2000/svg" height="496" viewBox="0 0 496 496" width="496" fill="#C5A87B"><path d="m157.8 253.9 18.2 11.6 18.2-11.6c48.7-31 77.8-84 77.8-141.7v-20.6l-96-61.1-96 61.1v20.6c0 57.7 29.1 110.7 77.8 141.7zm27.8-13.5-9.6 6.1-9.6-6.1c-14.9-9.5-27.8-21.3-38.3-34.8 1.2-25.4 22.2-45.6 47.9-45.6s46.6 20.3 47.9 45.6c-10.5 13.5-23.4 25.3-38.3 34.8zm-25.6-112.4v-16c0-8.8 7.2-16 16-16s16 7.2 16 16v16c0 8.8-7.2 16-16 16s-16-7.2-16-16zm-64-27.6 80-50.9 80 50.9v11.8c0 26.8-7 52.4-19.6 74.8-6.1-17.3-19.3-31.3-36.2-38.2 4.8-5.6 7.9-12.8 7.9-20.8v-16c0-17.6-14.4-32-32-32s-32 14.4-32 32v16c0 8 3 15.2 7.9 20.8-16.9 6.9-30.2 20.9-36.2 38.2-12.7-22.4-19.6-48-19.6-74.8zm0 0"></path><path d="m32 400h16v16h-16zm0 0"></path><path d="m64 400h16v16h-16zm0 0"></path><path d="m96 400h16v16h-16zm0 0"></path><path d="m456 96h-8v-96h-400v96h-8c-22.1 0-40 17.9-40 40v272c0 22.1 17.9 40 40 40h104v32h-32v16h272v-16h-32v-32h104c22.1 0 40-17.9 40-40v-272c0-22.1-17.9-40-40-40zm-416 16h24v-96h368v272h-368v-160h-16v176h400v-192h8c13.2 0 24 10.8 24 24v248h-332.7l-16-16h-115.3v-232c0-13.2 10.8-24 24-24zm416 320h-280v16h160v32h-176v-48h-120c-13.2 0-24-10.8-24-24v-24h108.7l16 16h339.3v8c0 13.2-10.8 24-24 24zm0 0"></path><path d="m288 32h128v16h-128zm0 0"></path><path d="m288 64h128v16h-128zm0 0"></path><path d="m320 96h96v16h-96zm0 0"></path><path d="m288 96h16v16h-16zm0 0"></path><path d="m288 128h128v16h-128zm0 0"></path><path d="m288 160h128v16h-128zm0 0"></path><path d="m400 192h16v16h-16zm0 0"></path><path d="m288 192h96v16h-96zm0 0"></path><path d="m288 224h128v16h-128zm0 0"></path><path d="m344 256h16v16h-16zm0 0"></path><path d="m312 256h16v16h-16zm0 0"></path><path d="m376 256h16v16h-16zm0 0"></path></svg> 