<?xml version="1.0" encoding="UTF-8"?> <svg xmlns="http://www.w3.org/2000/svg" width="185" height="185" viewBox="0 0 184.6 184.6" fill="#C5A87B"><polygon points="114.2 81.1 76.4 62.2 76.4 75.5 60.1 75.5 60.1 86.8 76.4 86.8 76.4 100 "></polygon><path d="M145.1 138.3c2.8 0 5.3-0.8 7.5-2.3 -0.6 0-1.3 0-1.9 0 -19.7 0-39.6-6.6-39.6-19.2v-1H13.7c-4.5 0-8.1-3.7-8.1-8.1V37.1c0-4.5 3.6-8.1 8.1-8.1h131.3c4.5 0 8.1 3.6 8.1 8.1v6.3c1.9 0.1 3.8 0.2 5.6 0.3v-6.6c0-7.6-6.2-13.7-13.7-13.7H13.7C6.2 23.4 0 29.6 0 37.1v87.5c0 7.6 6.2 13.7 13.7 13.7h60.1v11.7H31.8l-5.6 5.6v5.6h106.5v-5.6l-5.6-5.6H85V138.3H145.1z"></path><path d="M150.6 96.5c-18.8 0-34-6.1-34-13.6v13.6c0 7.5 15.2 13.6 34 13.6 18.8 0 34-6.1 34-13.6V82.9C184.6 90.4 169.4 96.5 150.6 96.5z"></path><path d="M150.6 116.9c-18.8 0-34-6.1-34-13.6v13.6c0 7.5 15.2 13.6 34 13.6 18.8 0 34-6.1 34-13.6v-13.6C184.6 110.8 169.4 116.9 150.6 116.9z"></path><path d="M150.6 48.9c-18.8 0-34 6.1-34 13.6v13.6c0 7.5 15.2 13.6 34 13.6 18.8 0 34-6.1 34-13.6V62.5C184.6 55 169.4 48.9 150.6 48.9zM150.6 72.7c-18.7 0-30.6-6-30.6-10.2 0-4.2 11.9-10.2 30.6-10.2 18.7 0 30.6 6 30.6 10.2C181.2 66.7 169.3 72.7 150.6 72.7z"></path></svg> 