<?xml version="1.0" encoding="UTF-8"?> <svg xmlns="http://www.w3.org/2000/svg" height="57" viewBox="0 0 56.7 56.7" width="57" fill="#C5A87B"><path d="M3.6 29.4c0 9.7 5.7 18.2 13.9 22.2L5.7 19.3C4.4 22.4 3.6 25.8 3.6 29.4zM44.8 28.1c0-3-1.1-5.2-2-6.8 -1.2-2-2.4-3.7-2.4-5.8 0-2.3 1.7-4.4 4.1-4.4 0.1 0 0.2 0 0.3 0C40.5 7.2 34.6 4.7 28.2 4.7c-8.6 0-16.2 4.4-20.6 11.1 0.6 0 1.1 0 1.6 0 2.6 0 6.6-0.3 6.6-0.3 1.3-0.1 1.5 1.9 0.2 2 0 0-1.3 0.2-2.8 0.2l9 26.7 5.4-16.2 -3.8-10.5c-1.3-0.1-2.6-0.2-2.6-0.2 -1.3-0.1-1.2-2.1 0.2-2 0 0 4.1 0.3 6.5 0.3 2.6 0 6.6-0.3 6.6-0.3 1.3-0.1 1.5 1.9 0.2 2 0 0-1.3 0.2-2.8 0.2l8.9 26.5 2.5-8.2C44.2 32.9 44.8 30.2 44.8 28.1zM28.6 31.5l-7.4 21.5c2.2 0.6 4.5 1 7 1 2.9 0 5.6-0.5 8.2-1.4 -0.1-0.1-0.1-0.2-0.2-0.3L28.6 31.5zM49.8 17.5c0.1 0.8 0.2 1.6 0.2 2.5 0 2.5-0.5 5.3-1.9 8.8l-7.5 21.7c7.3-4.3 12.2-12.2 12.2-21.3C52.8 25.1 51.7 21 49.8 17.5z"></path></svg> 